<svg id="Grupo_10" data-name="Grupo 10" xmlns="http://www.w3.org/2000/svg" xmlns:xlink="http://www.w3.org/1999/xlink" width="375" height="375" viewBox="0 0 375 375">
  <metadata><?xpacket begin="﻿" id="W5M0MpCehiHzreSzNTczkc9d"?>
<x:xmpmeta xmlns:x="adobe:ns:meta/" x:xmptk="Adobe XMP Core 5.6-c140 79.160451, 2017/05/06-01:08:21        ">
   <rdf:RDF xmlns:rdf="http://www.w3.org/1999/02/22-rdf-syntax-ns#">
      <rdf:Description rdf:about=""/>
   </rdf:RDF>
</x:xmpmeta>
                                                                                                    
                                                                                                    
                                                                                                    
                                                                                                    
                                                                                                    
                                                                                                    
                                                                                                    
                                                                                                    
                                                                                                    
                                                                                                    
                                                                                                    
                                                                                                    
                                                                                                    
                                                                                                    
                                                                                                    
                                                                                                    
                                                                                                    
                                                                                                    
                                                                                                    
                                                                                                    
                           
<?xpacket end="w"?></metadata>
<defs>
    <style>
      .cls-1 {
        fill: url(#linear-gradient);
      }

      .cls-2 {
        fill: #fff;
        fill-rule: evenodd;
      }
    </style>
    <linearGradient id="linear-gradient" y1="356.326" x2="375" y2="18.674" gradientUnits="userSpaceOnUse">
      <stop offset="-0.94" stop-color="#dd90fa"/>
      <stop offset="-0.024" stop-color="#dd90fa"/>
      <stop offset="1.329" stop-color="#00e0d3"/>
      <stop offset="1.94" stop-color="#00e0d3"/>
    </linearGradient>
  </defs>
  <circle id="Elipse_1" data-name="Elipse 1" class="cls-1" cx="187.5" cy="187.5" r="187.5"/>
  <path id="Forma_1" data-name="Forma 1" class="cls-2" d="M939.883,578.113c29.423,0,53.288-23.585,53.288-52.66s-23.865-52.5-53.288-52.5-53.287,23.584-53.287,52.5S910.461,578.113,939.883,578.113Zm0-91.429c21.577,0,39.23,17.446,39.23,38.769s-17.653,38.768-39.23,38.768-39.229-17.446-39.229-38.768S918.308,486.684,939.883,486.684ZM847.694,660.333H1032.73a6.939,6.939,0,0,0,7.03-6.946c0-36.345-29.92-66.067-66.858-66.067H907.519c-36.777,0-66.854,29.561-66.854,66.067A6.937,6.937,0,0,0,847.694,660.333Zm59.825-59.121H972.9a52.556,52.556,0,0,1,52.308,45.229h-170A52.7,52.7,0,0,1,907.519,601.212Z" transform="translate(-753 -379)"/>
</svg>
