<svg id="Grupo_11" data-name="Grupo 11" xmlns="http://www.w3.org/2000/svg" xmlns:xlink="http://www.w3.org/1999/xlink" width="419" height="419" viewBox="0 0 419 419">
  <metadata><?xpacket begin="﻿" id="W5M0MpCehiHzreSzNTczkc9d"?>
<x:xmpmeta xmlns:x="adobe:ns:meta/" x:xmptk="Adobe XMP Core 5.6-c140 79.160451, 2017/05/06-01:08:21        ">
   <rdf:RDF xmlns:rdf="http://www.w3.org/1999/02/22-rdf-syntax-ns#">
      <rdf:Description rdf:about=""/>
   </rdf:RDF>
</x:xmpmeta>
                                                                                                    
                                                                                                    
                                                                                                    
                                                                                                    
                                                                                                    
                                                                                                    
                                                                                                    
                                                                                                    
                                                                                                    
                                                                                                    
                                                                                                    
                                                                                                    
                                                                                                    
                                                                                                    
                                                                                                    
                                                                                                    
                                                                                                    
                                                                                                    
                                                                                                    
                                                                                                    
                           
<?xpacket end="w"?></metadata>
<defs>
    <style>
      .cls-1 {
        fill: url(#linear-gradient);
      }

      .cls-2 {
        fill: #fff;
        fill-rule: evenodd;
      }
    </style>
    <linearGradient id="linear-gradient" y1="398.135" x2="419" y2="20.865" gradientUnits="userSpaceOnUse">
      <stop offset="-0.94" stop-color="#dd90fa"/>
      <stop offset="-0.024" stop-color="#dd90fa"/>
      <stop offset="1.329" stop-color="#00e0d3"/>
      <stop offset="1.94" stop-color="#00e0d3"/>
    </linearGradient>
  </defs>
  <circle id="Elipse_1_copia" data-name="Elipse 1 copia" class="cls-1" cx="209.5" cy="209.5" r="209.5"/>
  <path class="cls-2" d="M947.9,721.234L944,755.256a5.889,5.889,0,0,0,1.538,4.662,6.263,6.263,0,0,0,4.605,2h24.715a6.263,6.263,0,0,0,4.605-2A5.9,5.9,0,0,0,981,755.256l-3.9-34.022a23.516,23.516,0,0,0,10.113-19.293c0-13.231-11.085-23.99-24.717-23.99s-24.716,10.759-24.716,23.99A23.514,23.514,0,0,0,947.9,721.234Zm119.644-91.262h-18.53v-23.99c0-46.3-38.81-83.964-86.511-83.964s-86.508,37.666-86.508,83.964v23.99H857.453a6.087,6.087,0,0,0-6.179,6V785.906c0,13.23,11.086,23.988,24.717,23.988H1049.01c13.63,0,24.71-10.758,24.71-23.989V635.97A6.085,6.085,0,0,0,1067.54,629.972Zm-55.61-23.99v23.99H913.066v-23.99c0-26.456,22.176-47.979,49.433-47.979S1011.93,579.526,1011.93,605.982Zm49.44,179.923a12.2,12.2,0,0,1-12.36,12H875.991a12.2,12.2,0,0,1-12.358-12V641.967H1061.37V785.905Z" transform="translate(-753 -463)"/>
</svg>
